<svg viewBox="0 0 344 360" version="1.1" xmlns="http://www.w3.org/2000/svg" xmlns:xlink="http://www.w3.org/1999/xlink" overflow="visible" id="utubsox">
   <desc>Engraved by Verovio 6.2.0-43f8060</desc>
   <defs>
      <g id="E052-utubsox">
         <path transform="scale(1,-1)" d="M382 117c-72 -2 -128 -47 -128 -120v-7c2 -46 43 -99 75 -115c-3 -2 -7 -5 -10 -10c-70 33 -116 88 -123 172v11c0 68 44 126 88 159c23 17 49 29 78 36l-29 170c-21 -13 -52 -37 -92 -73c-50 -44 -86 -84 -109 -119c-45 -69 -67 -130 -67 -182v-13 c5 -68 35 -127 93 -176s125 -73 203 -73c25 0 50 3 75 9c-19 111 -36 221 -54 331zM406 119l54 -326c73 25 110 78 110 161c0 7 0 15 -1 23c-7 95 -57 142 -151 142h-12zM461 939c-95 0 -135 -175 -135 -286c0 -24 2 -48 5 -71c50 39 92 82 127 128c40 53 60 100 60 140v8 c-4 53 -22 81 -55 81h-2zM441 -245c-23 -4 -48 -6 -76 -6c-59 0 -102 7 -130 20c-88 42 -150 93 -187 154c-26 44 -43 103 -48 176c0 6 -1 13 -1 19c0 54 15 111 45 170c29 57 65 106 110 148s96 85 153 127c-3 16 -8 46 -13 92c-4 43 -5 73 -5 89c0 117 16 172 69 257 c34 54 64 82 89 82c21 0 43 -30 69 -92s39 -115 41 -159v-15c0 -109 -21 -162 -67 -241c-13 -20 -63 -90 -98 -118c-13 -9 -25 -19 -37 -29l31 -181c8 1 18 2 28 2c58 0 102 -12 133 -35c59 -43 92 -104 98 -184c1 -7 1 -15 1 -22c0 -123 -87 -209 -181 -248 c8 -57 17 -110 25 -162c5 -31 6 -58 6 -80c0 -30 -5 -53 -14 -70c-25 -46 -59 -77 -102 -92c21 -1 85 -13 85 -60c0 -35 -22 -43 -31 -50c-6 -5 -8 -10 -8 -16s0 -11 4 -16c6 -11 9 -22 9 -34c0 -27 -18 -53 -46 -65c-11 -4 -27 -6 -41 -6c-34 0 -82 21 -90 58 c-1 5 -2 8 -2 12c0 28 25 57 51 66c4 1 6 2 6 5c0 2 -1 3 -2 3c-11 13 -16 27 -16 41c0 21 11 40 30 51h-5c-5 0 -11 -1 -16 -1c-37 0 -72 10 -108 27c-50 24 -77 59 -80 105v11c0 29 7 55 20 76c18 28 45 42 79 44h6c49 0 93 -42 97 -87v-9c0 -51 -34 -86 -105 -106 c17 -24 51 -36 102 -36c62 0 116 43 140 85c9 16 13 41 13 74c0 20 -1 42 -5 67c-8 53 -18 106 -26 159zM315 -781c-3 -2 -6 -5 -7 -8c-6 -8 -10 -19 -10 -30c0 -2 0 -4 1 -7c7 -32 34 -52 53 -52c20 0 37 20 37 36c0 5 -2 9 -4 14c-5 13 -14 24 -25 34c-6 5 -11 10 -17 14 c-4 2 -9 6 -14 6c-6 0 -11 -3 -14 -7zM349 -685c0 -14 10 -25 18 -34c8 -8 16 -18 26 -25c5 -2 10 -4 13 -4c17 0 22 30 23 48c0 9 -3 20 -9 26c-8 9 -23 14 -40 14c-15 -1 -29 -8 -31 -25z" />
      </g>
      <g id="E086-utubsox">
         <path transform="scale(1,-1)" d="M284 -91c0 37 -28 92 -67 92c-35 0 -65 -54 -65 -111c0 -52 22 -104 68 -104c47 0 64 68 64 123zM230 214c-36 0 -90 -33 -90 -184l2 -36c40 24 81 36 120 36c80 0 140 -48 140 -121c0 -99 -99 -159 -182 -159c-160 0 -200 173 -200 244c0 21 2 43 7 71l10 35 c26 85 73 115 98 126c41 19 74 24 103 24c93 0 142 -63 142 -105c0 -58 -52 -72 -73 -72c-33 0 -59 24 -65 35c-3 5 -6 14 -7 25l11 30c6 15 9 27 9 35c0 11 -9 16 -25 16z" />
      </g>
      <g id="E088-utubsox">
         <path transform="scale(1,-1)" d="M195 -214c76 0 88 58 90 68c0 34 -35 60 -57 73l-52 29c-21 10 -32 17 -34 20c-39 -33 -58 -54 -62 -92c5 -23 23 -98 115 -98zM301 135c0 61 -72 76 -113 76c-40 0 -77 -17 -77 -51c3 -21 15 -38 26 -50c17 -15 33 -26 48 -34l65 -28c34 27 51 56 51 87zM176 -250 c-57 0 -166 26 -166 132c0 47 30 86 89 116c-33 15 -79 60 -79 119c0 79 85 132 178 132h18c5 0 21 1 28 -1c25 0 126 -30 126 -110c0 -37 -23 -76 -69 -116c43 -25 83 -71 83 -119c0 -101 -118 -153 -208 -153z" />
      </g>
      <g id="E0A4-utubsox">
         <path transform="scale(1,-1)" d="M0 -39c0 68 73 172 200 172c66 0 114 -37 114 -95c0 -84 -106 -171 -218 -171c-64 0 -96 30 -96 94z" />
      </g>
   </defs>
   <style type="text/css">#utubsox g.ending, #utubsox g.fing, #utubsox g.reh, #utubsox g.tempo {font-weight:bold;}#utubsox g.dir, #utubsox g.dynam, #utubsox g.mNum {font-style:italic;}#utubsox g.label {font-weight:normal;}#utubsox ellipse, #utubsox path, #utubsox polygon, #utubsox polyline, #utubsox rect {stroke:currentColor}</style>
   <svg class="definition-scale" color="black" font-family="Times, serif" viewBox="0 0 5720 6000">
      <g class="page-margin" transform="translate(500, 500)">
         <g id="v107qylw" class="mdiv pageMilestone" />
         <g id="wwuhh4g" class="score pageMilestone" />
         <g id="onp9l78" class="system">
            <g id="l1xjqj8f" class="section systemMilestone" />
            <g id="m172ptoc" class="measure">
               <g id="vxoy8kf" class="staff">
                  <path d="M0 765 L4720 765" stroke-width="13" />
                  <path d="M0 945 L4720 945" stroke-width="13" />
                  <path d="M0 1125 L4720 1125" stroke-width="13" />
                  <path d="M0 1305 L4720 1305" stroke-width="13" />
                  <path d="M0 1485 L4720 1485" stroke-width="13" />
                  <g id="t11zfwov" class="clef">
                     <use xlink:href="#E052-utubsox" transform="translate(90, 1305) scale(0.72, 0.72)" />
                  </g>
                  <g id="uh8bxh8" class="keySig" />
                  <g id="v5xmufc" class="meterSig">
                     <use xlink:href="#E086-utubsox" transform="translate(721, 945) scale(0.72, 0.72)" />
                     <use xlink:href="#E088-utubsox" transform="translate(728, 1305) scale(0.72, 0.72)" />
                  </g>
                  <g class="ledgerLines above">
                     <path d="M2383 585 L2705 585" stroke-width="22" />
                     <path d="M2952 585 L3274 585" stroke-width="22" />
                     <path d="M3521 585 L3843 585" stroke-width="22" />
                  </g>
                  <g id="wi5kih3" class="layer">
                     <g id="xx3rinb" class="beam">
                        <polygon points="1292,1485 2449,1305 2449,1215 1292,1395" />
                        <g id="hero-n01" class="note">
                           <g class="notehead">
                              <use xlink:href="#E0A4-utubsox" transform="translate(1292, 855) scale(0.72, 0.72)" />
                           </g>
                           <g id="nklnk6i" class="stem">
                              <path d="M1301 883 L1301 1467" stroke-width="18" />
                           </g>
                        </g>
                        <g id="hero-n02" class="note">
                           <g class="notehead">
                              <use xlink:href="#E0A4-utubsox" transform="translate(1861, 675) scale(0.72, 0.72)" />
                           </g>
                           <g id="o1u02ade" class="stem">
                              <path d="M1870 703 L1870 1378" stroke-width="18" />
                           </g>
                        </g>
                        <g id="hero-n03" class="note">
                           <g class="notehead">
                              <use xlink:href="#E0A4-utubsox" transform="translate(2431, 585) scale(0.72, 0.72)" />
                           </g>
                           <g id="p1cwvd6l" class="stem">
                              <path d="M2440 613 L2440 1287" stroke-width="18" />
                           </g>
                        </g>
                     </g>
                     <g id="borcjxq" class="beam">
                        <polygon points="3000,1125 4156,1305 4156,1215 3000,1035" />
                        <g id="hero-n04" class="note">
                           <g class="notehead">
                              <use xlink:href="#E0A4-utubsox" transform="translate(3000, 495) scale(0.72, 0.72)" />
                           </g>
                           <g id="q1gsmoit" class="stem">
                              <path d="M3009 523 L3009 1107" stroke-width="18" />
                           </g>
                        </g>
                        <g id="hero-n05" class="note">
                           <g class="notehead">
                              <use xlink:href="#E0A4-utubsox" transform="translate(3569, 585) scale(0.72, 0.72)" />
                           </g>
                           <g id="refqtp9" class="stem">
                              <path d="M3578 613 L3578 1197" stroke-width="18" />
                           </g>
                        </g>
                        <g id="hero-n06" class="note">
                           <g class="notehead">
                              <use xlink:href="#E0A4-utubsox" transform="translate(4138, 675) scale(0.72, 0.72)" />
                           </g>
                           <g id="s18d9dfu" class="stem">
                              <path d="M4147 703 L4147 1287" stroke-width="18" />
                           </g>
                        </g>
                     </g>
                  </g>
               </g>
               <g id="f20mups" class="dir">
                  <text x="1292" y="271" font-size="0px">
                     <tspan id="g15bzwdh" class="rend" font-style="italic">
                        <tspan id="h15x06kq" class="text">
                           <tspan font-size="405px">A pentatonic</tspan>
                        </tspan>
                     </tspan>
                  </text>
               </g>
               <g id="uypd0sl" class="barLine">
                  <path d="M4707 765 L4707 1485" stroke-width="27" />
               </g>
            </g>
         </g>
         <g id="rpksrph" class="system">
            <g id="i1k137xk" class="measure">
               <g id="qxr0vzv" class="mNum autogenerated">
                  <text y="2608" text-anchor="middle" font-size="0px">
                     <tspan id="r1aici4q" class="text">
                        <tspan font-size="324px">2</tspan>
                     </tspan>
                  </text>
               </g>
               <g id="r8uzs30" class="staff">
                  <path d="M0 2851 L4720 2851" stroke-width="13" />
                  <path d="M0 3031 L4720 3031" stroke-width="13" />
                  <path d="M0 3211 L4720 3211" stroke-width="13" />
                  <path d="M0 3391 L4720 3391" stroke-width="13" />
                  <path d="M0 3571 L4720 3571" stroke-width="13" />
                  <g id="w1p04lxl" class="clef">
                     <use xlink:href="#E052-utubsox" transform="translate(90, 3391) scale(0.72, 0.72)" />
                  </g>
                  <g id="x1f5obkc" class="keySig" />
                  <g class="ledgerLines above">
                     <path d="M765 2671 L1087 2671" stroke-width="22" />
                     <path d="M1414 2671 L1736 2671" stroke-width="22" />
                     <path d="M2063 2671 L2385 2671" stroke-width="22" />
                     <path d="M2712 2671 L3034 2671" stroke-width="22" />
                     <path d="M3361 2671 L3683 2671" stroke-width="22" />
                     <path d="M2063 2491 L2385 2491" stroke-width="22" />
                  </g>
                  <g id="spswzbc" class="layer">
                     <g id="tzjvsi6" class="beam">
                        <polygon points="813,3301 2129,3211 2129,3121 813,3211" />
                        <g id="hero-n07" class="note">
                           <g class="notehead">
                              <use xlink:href="#E0A4-utubsox" transform="translate(813, 2671) scale(0.72, 0.72)" />
                           </g>
                           <g id="t13fm297" class="stem">
                              <path d="M822 2699 L822 3283" stroke-width="18" />
                           </g>
                        </g>
                        <g id="hero-n08" class="note">
                           <g class="notehead">
                              <use xlink:href="#E0A4-utubsox" transform="translate(1462, 2581) scale(0.72, 0.72)" />
                           </g>
                           <g id="uoc5uxg" class="stem">
                              <path d="M1471 2609 L1471 3238" stroke-width="18" />
                           </g>
                        </g>
                        <g id="hero-n09" class="note">
                           <g class="notehead">
                              <use xlink:href="#E0A4-utubsox" transform="translate(2111, 2401) scale(0.72, 0.72)" />
                           </g>
                           <g id="vmwl3um" class="stem">
                              <path d="M2120 2429 L2120 3193" stroke-width="18" />
                           </g>
                        </g>
                     </g>
                     <g id="xc6xu3n" class="beam">
                        <polygon points="2760,3211 4076,3391 4076,3301 2760,3121" />
                        <g id="hero-n10" class="note">
                           <g class="notehead">
                              <use xlink:href="#E0A4-utubsox" transform="translate(2760, 2581) scale(0.72, 0.72)" />
                           </g>
                           <g id="w7n5uts" class="stem">
                              <path d="M2769 2609 L2769 3193" stroke-width="18" />
                           </g>
                        </g>
                        <g id="hero-n11" class="note">
                           <g class="notehead">
                              <use xlink:href="#E0A4-utubsox" transform="translate(3409, 2671) scale(0.72, 0.72)" />
                           </g>
                           <g id="x1dqylcd" class="stem">
                              <path d="M3418 2699 L3418 3283" stroke-width="18" />
                           </g>
                        </g>
                        <g id="hero-n12" class="note">
                           <g class="notehead">
                              <use xlink:href="#E0A4-utubsox" transform="translate(4058, 2761) scale(0.72, 0.72)" />
                           </g>
                           <g id="y195yena" class="stem">
                              <path d="M4067 2789 L4067 3373" stroke-width="18" />
                           </g>
                        </g>
                     </g>
                  </g>
               </g>
               <g id="q1x2z4kk" class="barLine">
                  <path d="M4707 2851 L4707 3571" stroke-width="27" />
               </g>
            </g>
         </g>
      </g>
   </svg>
</svg>
